{"title":"Stolen 2012 DVDRip XviD AC3 - TODE","uid":7691815,"size":728798376,"categoryP":"video","categoryS":"movies","magnet":"?xt=urn:btih:3c99f5a9ebc5dc0cab3d6d23801038218d683079&amp;dn=Stolen+2012+DVDRip+XviD+AC3+-+TODE&amp;tr=udp%3A%2F%2Ftracker.openbittorrent.com%3A80&amp;tr=udp%3A%2F%2Fopen.demonii.com%3A1337&amp;tr=udp%3A%2F%2Ftracker.coppersurfer.tk%3A6969&amp;tr=udp%3A%2F%2Fexodus.desync.com%3A6969","seeders":0,"leechers":3,"uploader":"Gh0stNet","files":1,"time":1349223772,"description":"\n &lt;a href=&quot;\nhttp://www.imdb.com/title/tt1656186/&quot; rel=&quot;nofollow&quot; target=&quot;_NEW&quot;&gt;\nhttp://www.imdb.com/title/tt1656186/&lt;/a&gt;\n\nPlot:A former thief frantically searches for his missing daughter, who has been kidnapped and locked in the trunk of a taxi.\n\n\n\nDirector:\nSimon West\n\nWriter:\nDavid Guggenheim\n\nStars:\nNicolas Cage, Malin Akerman and Josh Lucas\n\nGenres:\nAction | Thriller\n\nThanks : Lum1x\n\n\n\nFormat : AVI\nFormat/Info : Audio Video Interleave\nFile size : 695 MiB\nDuration : 1h 31mn\nOverall bit rate : 1 060 Kbps\nWriting application : VirtualDubMod 1.5.10.2 (build 2540/release)\nWriting library : VirtualDub build 32842/release\n\nVideo\nID : 0\nFormat : MPEG-4 Visual\nFormat profile : Simple@L3\nFormat settings, BVOP : No\nFormat settings, QPel : No\nFormat settings, GMC : No warppoints\nFormat settings, Matrix : Default (H.263)\nCodec ID : XVID\nCodec ID/Hint : XviD\nDuration : 1h 31mn\nBit rate : 921 Kbps\nWidth : 640 pixels\nHeight : 356 pixels\nDisplay aspect ratio : 16:9\nFrame rate : 25.000 fps\nColor space : YUV\nChroma subsampling : 4:2:0\nBit depth : 8 bits\nScan type : Progressive\nCompression mode : Lossy\nBits/(Pixel*Frame) : 0.162\nStream size : 604 MiB (87%)\nWriting library : XviD 1.3.0.dev55\n\nAudio\nID : 1\nFormat : AC-3\nFormat/Info : Audio Coding 3\nMode extension : CM (complete main)\nFormat settings, Endianness : Big\nCodec ID : 2000\nDuration : 1h 31mn\nBit rate mode : Constant\nBit rate : 128 Kbps\nChannel(s) : 2 channels\nChannel positions : Front: L R\nSampling rate : 48.0 KHz\nBit depth : 16 bits\nCompression mode : Lossy\nStream size : 83.9 MiB (12%)\nAlignment : Aligned on interleaves\nInterleave, duration : 32 ms (0.80 video frame)\nInterleave, preload duration : 512 ms","torrent":{"xt":"urn:btih:3c99f5a9ebc5dc0cab3d6d23801038218d683079","amp;dn":"Stolen+2012+DVDRip+XviD+AC3+-+TODE","amp;tr":["udp%3A%2F%2Ftracker.openbittorrent.com%3A80","udp%3A%2F%2Fopen.demonii.com%3A1337","udp%3A%2F%2Ftracker.coppersurfer.tk%3A6969","udp%3A%2F%2Fexodus.desync.com%3A6969"],"infoHash":"3c99f5a9ebc5dc0cab3d6d23801038218d683079","infoHashBuffer":{"type":"Buffer","data":[60,153,245,169,235,197,220,12,171,61,109,35,128,16,56,33,141,104,48,121]},"announce":[],"urlList":[]}}